<svg width="37" height="34" viewBox="0 0 37 34" fill="none" xmlns="http://www.w3.org/2000/svg">
<path d="M22.4636 21.2556L23.7864 23.8694C23.7864 23.8694 29.7326 25.0296 29.7326 27.7893C29.7326 29.7499 27.0871 29.7499 27.0871 29.7499H20.0417L16.5729 27.9791" stroke="#24642E" stroke-width="1.5" stroke-linecap="round" stroke-linejoin="round"/>
<path d="M14.5364 21.2556L13.2152 23.8694C13.2152 23.8694 7.26743 25.0296 7.26743 27.7893C7.26743 29.7499 9.91292 29.7499 9.91292 29.7499H13.1042L16.5729 27.9791L20.8125 25.4999" stroke="#24642E" stroke-width="1.5" stroke-linecap="round" stroke-linejoin="round"/>
<path d="M4.625 22.5618C4.625 22.5618 7.92879 21.9087 9.91137 21.2557C11.8924 12.1068 17.8371 12.7599 18.5 12.7599C19.1614 12.7599 25.1076 12.1068 27.0886 21.2557C29.0712 21.9073 32.375 22.5618 32.375 22.5618H4.625ZM18.5 9.91667C19.3178 9.91667 20.102 9.61816 20.6802 9.0868C21.2585 8.55545 21.5833 7.83478 21.5833 7.08333C21.5833 6.33189 21.2585 5.61122 20.6802 5.07986C20.102 4.54851 19.3178 4.25 18.5 4.25C17.6822 4.25 16.898 4.54851 16.3198 5.07986C15.7415 5.61122 15.4167 6.33189 15.4167 7.08333C15.4167 7.83478 15.7415 8.55545 16.3198 9.0868C16.898 9.61816 17.6822 9.91667 18.5 9.91667Z" stroke="#24642E" stroke-width="1.5" stroke-linecap="round" stroke-linejoin="round"/>
</svg>
